<?xml version="1.0" encoding="UTF-8" standalone="no"?><!-- Generator: Gravit.io --><svg xmlns="http://www.w3.org/2000/svg" xmlns:xlink="http://www.w3.org/1999/xlink" style="isolation:isolate" viewBox="0 0 512 512" width="512pt" height="512pt"><path d=" M 217.66 259.84 L 217.66 259.84 L 217.66 259.84 Q 217.66 274.048 212.86 284.608 L 212.86 284.608 L 212.86 284.608 Q 208.06 295.168 198.716 301.056 L 198.716 301.056 L 198.716 301.056 Q 189.372 306.944 175.548 306.944 L 175.548 306.944 L 175.548 306.944 Q 161.34 306.944 151.932 301.056 L 151.932 301.056 L 151.932 301.056 Q 142.524 295.168 137.916 284.544 L 137.916 284.544 L 137.916 284.544 Q 133.308 273.92 133.308 259.712 L 133.308 259.712 L 133.308 259.712 Q 133.308 245.632 137.916 235.136 L 137.916 235.136 L 137.916 235.136 Q 142.524 224.64 151.932 218.752 L 151.932 218.752 L 151.932 218.752 Q 161.34 212.864 175.676 212.864 L 175.676 212.864 L 175.676 212.864 Q 189.372 212.864 198.716 218.688 L 198.716 218.688 L 198.716 218.688 Q 208.06 224.512 212.86 235.072 L 212.86 235.072 L 212.86 235.072 Q 217.66 245.632 217.66 259.84 Z  M 145.468 259.84 L 145.468 259.84 L 145.468 259.84 Q 145.468 277.12 152.764 287.04 L 152.764 287.04 L 152.764 287.04 Q 160.06 296.96 175.548 296.96 L 175.548 296.96 L 175.548 296.96 Q 191.164 296.96 198.332 287.04 L 198.332 287.04 L 198.332 287.04 Q 205.5 277.12 205.5 259.84 L 205.5 259.84 L 205.5 259.84 Q 205.5 242.56 198.332 232.768 L 198.332 232.768 L 198.332 232.768 Q 191.164 222.976 175.676 222.976 L 175.676 222.976 L 175.676 222.976 Q 160.188 222.976 152.828 232.768 L 152.828 232.768 L 152.828 232.768 Q 145.468 242.56 145.468 259.84 Z  M 237.884 214.272 L 262.076 214.272 L 262.076 214.272 Q 279.996 214.272 288.188 221.312 L 288.188 221.312 L 288.188 221.312 Q 296.38 228.352 296.38 241.152 L 296.38 241.152 L 296.38 241.152 Q 296.38 248.704 292.988 255.296 L 292.988 255.296 L 292.988 255.296 Q 289.596 261.888 281.596 265.984 L 281.596 265.984 L 281.596 265.984 Q 273.596 270.08 259.9 270.08 L 259.9 270.08 L 249.404 270.08 L 249.404 305.664 L 237.884 305.664 L 237.884 214.272 L 237.884 214.272 Z  M 261.052 224.128 L 261.052 224.128 L 249.404 224.128 L 249.404 260.224 L 258.62 260.224 L 258.62 260.224 Q 271.676 260.224 278.076 256 L 278.076 256 L 278.076 256 Q 284.476 251.776 284.476 241.664 L 284.476 241.664 L 284.476 241.664 Q 284.476 232.832 278.844 228.48 L 278.844 228.48 L 278.844 228.48 Q 273.212 224.128 261.052 224.128 Z  M 354.492 223.104 L 354.492 223.104 L 354.492 223.104 Q 339.772 223.104 331.324 232.96 L 331.324 232.96 L 331.324 232.96 Q 322.876 242.816 322.876 259.968 L 322.876 259.968 L 322.876 259.968 Q 322.876 276.992 330.748 286.912 L 330.748 286.912 L 330.748 286.912 Q 338.62 296.832 354.364 296.832 L 354.364 296.832 L 354.364 296.832 Q 360.38 296.832 365.756 295.808 L 365.756 295.808 L 365.756 295.808 Q 371.132 294.784 376.252 293.248 L 376.252 293.248 L 376.252 303.232 L 376.252 303.232 Q 371.132 305.152 365.692 306.048 L 365.692 306.048 L 365.692 306.048 Q 360.252 306.944 352.7 306.944 L 352.7 306.944 L 352.7 306.944 Q 338.748 306.944 329.404 301.184 L 329.404 301.184 L 329.404 301.184 Q 320.06 295.424 315.388 284.8 L 315.388 284.8 L 315.388 284.8 Q 310.716 274.176 310.716 259.84 L 310.716 259.84 L 310.716 259.84 Q 310.716 246.016 315.772 235.456 L 315.772 235.456 L 315.772 235.456 Q 320.828 224.896 330.684 218.944 L 330.684 218.944 L 330.684 218.944 Q 340.54 212.992 354.62 212.992 L 354.62 212.992 L 354.62 212.992 Q 369.084 212.992 379.836 218.368 L 379.836 218.368 L 375.228 228.096 L 375.228 228.096 Q 371.004 226.176 365.82 224.64 L 365.82 224.64 L 365.82 224.64 Q 360.636 223.104 354.492 223.104 Z " id="Compound Path" fill="rgb(0,205,175)"/><path d=" M 85.5 168.832 Q 45.5 168.832 45.5 232.832 Q 45.5 248.832 29.5 248.832 L 29.5 264.832 Q 45.5 264.832 45.5 280.832 Q 45.5 344.832 85.5 344.832 L 85.5 328.832 Q 61.5 328.832 61.5 280.832 Q 61.5 256.832 45.5 256.832 Q 61.5 256.832 61.5 232.832 Q 61.5 184.832 85.5 184.832 L 85.5 168.832 Z " id="Bracket-Left" fill="rgb(136,136,136)"/><path d=" M 426.5 343.168 Q 466.5 343.168 466.5 279.168 Q 466.5 263.168 482.5 263.168 L 482.5 247.168 Q 466.5 247.168 466.5 231.168 Q 466.5 167.168 426.5 167.168 L 426.5 183.168 Q 450.5 183.168 450.5 231.168 Q 450.5 255.168 466.5 255.168 Q 450.5 255.168 450.5 279.168 Q 450.5 327.168 426.5 327.168 L 426.5 343.168 Z " id="Bracket-Right" fill="rgb(136,136,136)"/><path d=" M 125.5 168.832 L 69.5 256.832 L 125.5 344.832 L 125.5 320.832 L 85.5 256.832 L 125.5 192.832 L 125.5 168.832 Z " id="Less" fill="rgb(136,136,136)"/><path d=" M 386.5 344 L 442.5 256 L 386.5 168 L 386.5 192 L 426.5 256 L 386.5 320 L 386.5 344 Z " id="Greater" fill="rgb(136,136,136)"/></svg>